<svg width="354" height="328" viewBox="0 0 354 328" fill="none" xmlns="http://www.w3.org/2000/svg">
<path d="M306.435 42.0433C302.964 42.5854 299.588 43.9204 296.862 46.0331C296.548 46.276 296.249 46.5241 295.963 46.7775L296 46.7435C294.5 47.9109 293.17 49.1544 291.998 50.4556L292.129 50.3171C286.618 47.3746 279.998 46.4555 273.88 47.4964L273.778 47.5172L271.47 47.9876L271.938 49.7933C272.586 52.0125 273.772 54.2613 275.459 56.3406L275.567 56.4637C276.394 57.5452 277.516 58.6533 278.851 59.6596C281.741 61.8374 285.241 63.239 288.907 63.8691L288.815 63.8506C287.707 66.2978 285.857 68.7361 283.343 70.8753L283.3 70.9092L216.807 122.433C215.071 123.783 215.113 125.967 216.897 127.322C217.088 127.471 217.321 127.647 217.554 127.823C223.643 132.411 230.543 135.978 237.885 138.523L237.436 138.35C244.996 141.172 253.215 141.936 260.976 140.738L261.129 140.709C270.147 138.521 278.943 134.517 286.314 128.806C287.012 128.265 287.685 127.717 288.345 127.158L288.251 127.236C288.311 127.189 288.382 127.134 288.453 127.08C292.74 123.758 296.508 120.194 299.766 116.442L299.421 116.816C304.303 111.247 307.598 105.489 309.585 99.5163L309.471 99.8118C311.152 94.6029 311.69 89.4762 311.185 84.3874L311.177 84.3193C310.218 76.7708 307.519 69.1834 303.12 62.0463L302.823 61.6116L303.754 60.8908C303.946 60.7524 304.169 60.5905 304.384 60.4234C308.516 57.2216 310.598 53.0518 310.646 48.8479L310.646 48.8584C310.671 46.9356 310.166 45.0148 309.133 43.2215L309.08 43.1351L308.243 41.8757L306.435 42.0433ZM220.965 116.149L229.883 109.239C230.307 108.905 230.296 108.366 229.854 108.033L221.665 101.861C221.223 101.529 220.515 101.525 220.083 101.854L211.165 108.764C210.741 109.098 210.752 109.637 211.193 109.97L219.386 116.144C219.828 116.477 220.537 116.481 220.965 116.149ZM233.246 106.633L242.157 99.7277C242.585 99.396 242.578 98.8545 242.132 98.5191L233.943 92.3474C233.501 92.0146 232.793 92.0111 232.361 92.3401L223.443 99.2503C223.012 99.5846 223.023 100.129 223.468 100.464L231.658 106.636C232.106 106.969 232.815 106.967 233.246 106.633ZM245.71 96.9751L254.627 90.0649C255.052 89.7307 255.041 89.1917 254.599 88.8589L246.41 82.6873C245.968 82.3545 245.259 82.3509 244.828 82.68L235.91 89.5901C235.485 89.9244 235.496 90.4634 235.938 90.7962L244.131 96.9704C244.573 97.3032 245.282 97.3068 245.713 96.9725L245.71 96.9751ZM258.031 87.4273L266.939 80.5249C267.37 80.1907 267.359 79.6517 266.918 79.3137L258.728 73.1421C258.283 72.8066 257.571 72.8057 257.14 73.14L248.232 80.0423C247.804 80.374 247.811 80.9155 248.257 81.2509L256.45 87.4252C256.891 87.758 257.6 87.7616 258.028 87.4299C258.028 87.4299 258.028 87.4299 258.031 87.4273ZM221.464 97.7539L230.375 90.849C230.803 90.5121 230.792 89.9731 230.347 89.6377L222.158 83.4661C221.716 83.1333 221.007 83.1297 220.576 83.464L211.665 90.3689C211.233 90.7032 211.244 91.2421 211.686 91.5802L219.876 97.7518C220.324 98.0846 221.03 98.0856 221.464 97.7539ZM233.928 88.0964L242.846 81.1862C243.27 80.8519 243.256 80.3104 242.814 79.9776L234.625 73.806C234.183 73.4731 233.474 73.4696 233.043 73.8039L224.135 80.7062C223.707 81.0379 223.715 81.5794 224.16 81.9148L232.349 88.0864C232.798 88.4193 233.5 88.4228 233.935 88.0912L233.928 88.0964ZM246.25 78.5485L255.157 71.6462C255.585 71.3093 255.574 70.7704 255.132 70.4323L246.943 64.2607C246.494 63.9279 245.789 63.927 245.358 64.2612L236.45 71.1636C236.022 71.4952 236.03 72.0368 236.475 72.3722L244.664 78.5438C245.109 78.8793 245.815 78.8802 246.25 78.5485ZM234.468 69.6698L243.376 62.7675C243.807 62.4332 243.796 61.889 243.351 61.5536L235.158 55.3794C234.709 55.0465 234.004 55.0456 233.573 55.3799L224.665 62.2822C224.237 62.6139 224.244 63.1554 224.69 63.4909L232.883 69.6651C233.324 69.9979 234.033 70.0015 234.461 69.6698C234.461 69.6698 234.461 69.6698 234.464 69.6672L234.468 69.6698ZM270.458 77.7985L279.369 70.8935C279.8 70.5593 279.789 70.0203 279.347 69.6823L271.158 63.5107C270.713 63.1752 270.001 63.1743 269.569 63.5086L260.658 70.4135C260.227 70.7478 260.238 71.2867 260.683 71.6222L268.876 77.7964C269.317 78.1292 270.026 78.1328 270.458 77.7985Z" fill="url(#paint0_linear_27_168)" fill-opacity="0.8"/>
<path d="M190.731 128.654C187.26 129.196 183.884 130.531 181.157 132.644C180.844 132.887 180.544 133.135 180.259 133.388L180.296 133.354C178.796 134.522 177.466 135.765 176.294 137.066L176.425 136.928C170.914 133.985 164.294 133.066 158.176 134.107L158.074 134.128L155.765 134.598L156.234 136.404C156.882 138.623 158.068 140.872 159.754 142.951L159.863 143.074C160.69 144.156 161.811 145.264 163.147 146.27C166.036 148.448 169.537 149.85 173.203 150.48L173.11 150.461C172.003 152.909 170.153 155.347 167.639 157.486L167.595 157.52L101.103 209.043C99.3669 210.394 99.4083 212.578 101.192 213.933C101.384 214.082 101.617 214.258 101.85 214.433C107.939 219.022 114.839 222.589 122.18 225.134L121.732 224.96C129.291 227.783 137.51 228.547 145.271 227.349L145.425 227.32C154.443 225.132 163.239 221.128 170.61 215.417C171.307 214.876 171.981 214.328 172.641 213.769L172.546 213.847C172.607 213.8 172.678 213.745 172.748 213.69C177.036 210.368 180.804 206.805 184.062 203.053L183.717 203.426C188.598 197.858 191.894 192.099 193.88 186.127L193.767 186.423C195.447 181.214 195.986 176.087 195.481 170.998L195.473 170.93C194.514 163.382 191.814 155.794 187.416 148.657L187.119 148.222L188.049 147.502C188.242 147.363 188.464 147.201 188.68 147.034C192.812 143.832 194.894 139.663 194.941 135.459L194.941 135.469C194.967 133.546 194.462 131.626 193.429 129.832L193.376 129.746L192.539 128.486L190.731 128.654ZM105.26 202.76L114.178 195.85C114.603 195.515 114.592 194.977 114.15 194.644L105.961 188.472C105.519 188.139 104.81 188.136 104.379 188.465L95.4608 195.375C95.0363 195.709 95.0473 196.248 95.489 196.581L103.682 202.755C104.124 203.088 104.832 203.092 105.26 202.76ZM117.542 193.243L126.453 186.338C126.881 186.007 126.873 185.465 126.428 185.13L118.239 178.958C117.797 178.625 117.088 178.622 116.657 178.951L107.739 185.861C107.307 186.195 107.319 186.739 107.764 187.075L115.953 193.247C116.402 193.579 117.11 193.578 117.542 193.243ZM130.005 183.586L138.923 176.676C139.348 176.341 139.337 175.803 138.895 175.47L130.705 169.298C130.264 168.965 129.555 168.962 129.123 169.291L120.206 176.201C119.781 176.535 119.792 177.074 120.234 177.407L128.427 183.581C128.868 183.914 129.577 183.918 130.009 183.583L130.005 183.586ZM142.327 174.038L151.235 167.136C151.666 166.801 151.655 166.263 151.213 165.924L143.024 159.753C142.579 159.417 141.867 159.416 141.435 159.751L132.527 166.653C132.099 166.985 132.107 167.526 132.552 167.862L140.745 174.036C141.187 174.369 141.896 174.372 142.324 174.041C142.324 174.041 142.324 174.041 142.327 174.038ZM105.76 184.365L114.671 177.46C115.099 177.123 115.088 176.584 114.643 176.248L106.453 170.077C106.012 169.744 105.303 169.74 104.872 170.075L95.9605 176.98C95.5291 177.314 95.5401 177.853 95.9819 178.191L104.171 184.363C104.62 184.695 105.325 184.696 105.76 184.365ZM118.223 174.707L127.141 167.797C127.566 167.463 127.551 166.921 127.11 166.588L118.92 160.417C118.479 160.084 117.77 160.08 117.338 160.415L108.431 167.317C108.003 167.649 108.01 168.19 108.455 168.526L116.645 174.697C117.093 175.03 117.795 175.034 118.23 174.702L118.223 174.707ZM130.545 165.159L139.453 158.257C139.881 157.92 139.87 157.381 139.428 157.043L131.239 150.872C130.79 150.539 130.085 150.538 129.653 150.872L120.746 157.774C120.318 158.106 120.325 158.648 120.77 158.983L128.96 165.155C129.405 165.49 130.11 165.491 130.545 165.159ZM118.764 156.281L127.671 149.378C128.103 149.044 128.091 148.5 127.646 148.164L119.453 141.99C119.005 141.657 118.3 141.656 117.868 141.991L108.96 148.893C108.532 149.225 108.54 149.766 108.985 150.102L117.178 156.276C117.62 156.609 118.329 156.612 118.757 156.281C118.757 156.281 118.757 156.281 118.76 156.278L118.764 156.281ZM154.753 164.409L163.664 157.504C164.096 157.17 164.085 156.631 163.643 156.293L155.454 150.121C155.008 149.786 154.296 149.785 153.865 150.119L144.954 157.024C144.522 157.359 144.533 157.897 144.979 158.233L153.172 164.407C153.613 164.74 154.322 164.744 154.753 164.409Z" fill="url(#paint1_linear_27_168)" fill-opacity="0.8"/>
<path d="M72.3322 215.265C68.8613 215.807 65.4854 217.142 62.7588 219.255C62.4454 219.498 62.1457 219.746 61.8599 219.999L61.8969 219.965C60.3972 221.133 59.0668 222.376 57.8952 223.678L58.0259 223.539C52.5149 220.597 45.8949 219.677 39.7774 220.718L39.6751 220.739L37.3668 221.21L37.8352 223.015C38.4833 225.234 39.6695 227.483 41.3555 229.563L41.4641 229.686C42.2909 230.767 43.4126 231.875 44.748 232.882C47.6378 235.059 51.1383 236.461 54.8044 237.091L54.7115 237.073C53.6044 239.52 51.7542 241.958 49.2404 244.097L49.1966 244.131L-17.2961 295.654C-19.0317 297.005 -18.9904 299.189 -17.2062 300.544C-17.0149 300.693 -16.7819 300.869 -16.5489 301.044C-10.4598 305.633 -3.55964 309.2 3.78178 311.745L3.33314 311.572C10.8925 314.394 19.1116 315.158 26.8728 313.96L27.0263 313.931C36.0443 311.743 44.8402 307.739 52.211 302.028C52.9087 301.487 53.5822 300.939 54.2418 300.38L54.1476 300.458C54.2082 300.411 54.279 300.356 54.3498 300.301C58.6368 296.98 62.4053 293.416 65.6633 289.664L65.3183 290.038C70.1995 284.469 73.4951 278.711 75.4818 272.738L75.368 273.034C77.0485 267.825 77.5872 262.698 77.0823 257.609L77.0741 257.541C76.1148 249.993 73.4155 242.405 69.0169 235.268L68.7204 234.834L69.6506 234.113C69.8429 233.974 70.0656 233.812 70.2813 233.645C74.4133 230.444 76.4951 226.274 76.5425 222.07L76.5427 222.08C76.5684 220.158 76.0634 218.237 75.0303 216.443L74.9772 216.357L74.14 215.098L72.3322 215.265ZM-13.1383 289.371L-4.22043 282.461C-3.79588 282.127 -3.80692 281.588 -4.24856 281.255L-12.4381 275.083C-12.8797 274.75 -13.5885 274.747 -14.02 275.076L-22.9378 281.986C-23.3624 282.32 -23.3514 282.859 -22.9097 283.192L-14.7167 289.366C-14.2751 289.699 -13.5663 289.703 -13.1383 289.371ZM-0.856868 279.855L8.05422 272.95C8.48225 272.618 8.47458 272.076 8.02946 271.741L-0.160049 265.569C-0.601691 265.237 -1.31049 265.233 -1.74199 265.562L-10.6598 272.472C-11.0912 272.806 -11.0801 273.351 -10.635 273.686L-2.44545 279.858C-1.99696 280.191 -1.28827 280.189 -0.856868 279.855ZM11.6065 270.197L20.5243 263.287C20.9489 262.953 20.9379 262.414 20.4962 262.081L12.3067 255.909C11.8651 255.576 11.1563 255.573 10.7248 255.902L1.80694 262.812C1.38238 263.146 1.39342 263.685 1.83507 264.018L10.0281 270.192C10.4697 270.525 11.1785 270.529 11.6099 270.194L11.6065 270.197ZM23.9284 260.649L32.8361 253.747C33.2675 253.413 33.2564 252.874 32.8147 252.536L24.6252 246.364C24.1801 246.029 23.4679 246.028 23.0365 246.362L14.1288 253.264C13.7007 253.596 13.7084 254.137 14.1535 254.473L22.3465 260.647C22.7882 260.98 23.497 260.983 23.925 260.652C23.925 260.652 23.925 260.652 23.9284 260.649ZM-12.6386 270.976L-3.72754 264.071C-3.29962 263.734 -3.31066 263.195 -3.75578 262.86L-11.9453 256.688C-12.3869 256.355 -13.0957 256.352 -13.5271 256.686L-22.4382 263.591C-22.8696 263.925 -22.8586 264.464 -22.4168 264.802L-14.2273 270.974C-13.7788 271.307 -13.0735 271.307 -12.6386 270.976ZM-0.175236 261.318L8.74259 254.408C9.16714 254.074 9.15262 253.532 8.71098 253.199L0.521474 247.028C0.0798318 246.695 -0.628971 246.692 -1.06037 247.026L-9.96809 253.928C-10.3961 254.26 -10.3884 254.801 -9.94333 255.137L-1.75382 261.308C-1.30533 261.641 -0.603373 261.645 -0.168497 261.313L-0.175236 261.318ZM12.1466 251.77L21.0543 244.868C21.4822 244.531 21.4712 243.992 21.0294 243.654L12.8399 237.483C12.3914 237.15 11.6861 237.149 11.2547 237.483L2.34701 244.386C1.91898 244.717 1.92665 245.259 2.37177 245.594L10.5613 251.766C11.0064 252.101 11.7117 252.102 12.1466 251.77ZM0.364837 242.892L9.27255 235.989C9.70395 235.655 9.6928 235.111 9.24768 234.776L1.0547 228.601C0.606212 228.268 -0.0991137 228.268 -0.530513 228.602L-9.43823 235.504C-9.86625 235.836 -9.85859 236.377 -9.41347 236.713L-1.22048 242.887C-0.778841 243.22 -0.0700414 243.223 0.357987 242.892C0.357987 242.892 0.357988 242.892 0.361359 242.889L0.364837 242.892ZM36.3547 251.02L45.2657 244.115C45.6971 243.781 45.6861 243.242 45.2444 242.904L37.0549 236.733C36.6097 236.397 35.8976 236.396 35.4662 236.73L26.5551 243.635C26.1237 243.97 26.1347 244.509 26.5798 244.844L34.7728 251.018C35.2145 251.351 35.9233 251.355 36.3547 251.02Z" fill="url(#paint2_linear_27_168)" fill-opacity="0.8"/>
<path d="M40.9043 112.971C38.2893 113.38 35.7459 114.386 33.6917 115.977C33.4556 116.16 33.2298 116.347 33.0145 116.538L33.0423 116.513C31.9124 117.392 30.9102 118.329 30.0274 119.309L30.1259 119.205C25.9739 116.988 20.9864 116.296 16.3774 117.08L16.3004 117.095L14.5613 117.45L14.9142 118.81C15.4024 120.482 16.2961 122.176 17.5664 123.743L17.6482 123.836C18.2711 124.651 19.1162 125.485 20.1223 126.244C22.2995 127.884 24.9367 128.94 27.6988 129.415L27.6289 129.401C26.7948 131.245 25.4008 133.082 23.5069 134.693L23.4739 134.719L-26.6219 173.537C-27.9295 174.554 -27.8984 176.2 -26.5542 177.221C-26.41 177.333 -26.2345 177.465 -26.0589 177.598C-21.4714 181.055 -16.2728 183.742 -10.7417 185.659L-11.0798 185.529C-5.3845 187.655 0.807798 188.231 6.6551 187.328L6.77073 187.307C13.5649 185.658 20.1918 182.642 25.745 178.339C26.2706 177.931 26.778 177.518 27.275 177.097L27.204 177.156C27.2497 177.121 27.303 177.079 27.3563 177.038C30.5862 174.535 33.4254 171.851 35.8799 169.024L35.62 169.305C39.2975 165.11 41.7804 160.771 43.2772 156.272L43.1915 156.494C44.4576 152.57 44.8634 148.707 44.4831 144.874L44.4769 144.822C43.7542 139.135 41.7205 133.419 38.4066 128.042L38.1832 127.714L38.884 127.171C39.0289 127.067 39.1966 126.945 39.3592 126.819C42.4722 124.407 44.0407 121.265 44.0764 118.098L44.0765 118.106C44.0959 116.657 43.7154 115.21 42.9371 113.859L42.8971 113.794L42.2663 112.845L40.9043 112.971ZM-23.4893 168.803L-16.7706 163.597C-16.4508 163.345 -16.4591 162.939 -16.7918 162.688L-22.9618 158.038C-23.2946 157.788 -23.8286 157.785 -24.1537 158.033L-30.8724 163.239C-31.1922 163.491 -31.1839 163.897 -30.8512 164.148L-24.6786 168.799C-24.3458 169.05 -23.8118 169.053 -23.4893 168.803ZM-14.2365 161.633L-7.52288 156.431C-7.2004 156.181 -7.20618 155.773 -7.54153 155.52L-13.7115 150.871C-14.0443 150.62 -14.5783 150.617 -14.9034 150.865L-21.6221 156.071C-21.9471 156.323 -21.9387 156.733 -21.6033 156.986L-15.4334 161.636C-15.0955 161.886 -14.5615 161.885 -14.2365 161.633ZM-4.84657 154.357L1.87214 149.151C2.192 148.899 2.18369 148.493 1.85095 148.242L-4.31904 143.593C-4.65178 143.342 -5.18579 143.339 -5.51088 143.587L-12.2296 148.793C-12.5495 149.045 -12.5411 149.451 -12.2084 149.702L-6.03579 154.354C-5.70305 154.604 -5.16904 154.607 -4.84403 154.355L-4.84657 154.357ZM4.43673 147.164L11.1478 141.964C11.4728 141.712 11.4645 141.306 11.1317 141.051L4.96172 136.401C4.62636 136.149 4.08981 136.148 3.7648 136.4L-2.9463 141.6C-3.26877 141.85 -3.263 142.258 -2.92764 142.511L3.24497 147.162C3.57771 147.413 4.11172 147.416 4.43419 147.166C4.43419 147.166 4.43419 147.166 4.43673 147.164ZM-23.1129 154.944L-16.3993 149.742C-16.0769 149.488 -16.0852 149.082 -16.4206 148.829L-22.5906 144.179C-22.9233 143.929 -23.4573 143.926 -23.7823 144.178L-30.496 149.38C-30.821 149.632 -30.8126 150.038 -30.4798 150.293L-24.3098 154.942C-23.9719 155.193 -23.4406 155.194 -23.1129 154.944ZM-13.723 147.668L-7.00426 142.462C-6.6844 142.21 -6.69534 141.802 -7.02807 141.551L-13.1981 136.901C-13.5308 136.651 -14.0648 136.648 -14.3898 136.9L-21.1009 142.1C-21.4234 142.35 -21.4176 142.758 -21.0823 143.011L-14.9123 147.66C-14.5744 147.911 -14.0455 147.914 -13.7179 147.664L-13.723 147.668ZM-4.43967 140.475L2.27142 135.274C2.59382 135.021 2.5855 134.614 2.25269 134.36L-3.91731 129.71C-4.2552 129.459 -4.78659 129.459 -5.11161 129.71L-11.8227 134.911C-12.1452 135.161 -12.1394 135.569 -11.804 135.821L-5.63406 140.471C-5.2987 140.724 -4.76731 140.724 -4.43967 140.475ZM-13.3161 133.785L-6.60498 128.585C-6.27997 128.333 -6.28836 127.923 -6.62372 127.671L-12.7963 123.019C-13.1342 122.768 -13.6656 122.767 -13.9906 123.019L-20.7017 128.219C-21.0242 128.469 -21.0184 128.877 -20.6831 129.13L-14.5105 133.782C-14.1777 134.033 -13.6437 134.035 -13.3212 133.785C-13.3212 133.785 -13.3212 133.785 -13.3187 133.783L-13.3161 133.785ZM13.7987 139.909L20.5124 134.707C20.8374 134.455 20.8291 134.049 20.4963 133.795L14.3263 129.145C13.9909 128.892 13.4544 128.892 13.1293 129.143L6.41572 134.346C6.0907 134.597 6.09902 135.003 6.43437 135.256L12.607 139.908C12.9397 140.159 13.4737 140.161 13.7987 139.909Z" fill="url(#paint3_linear_27_168)" fill-opacity="0.8"/>
<path d="M159.105 30.3465C156.401 30.7689 153.771 31.8089 151.646 33.455C151.402 33.6442 151.169 33.8375 150.946 34.0349L150.975 34.0085C149.807 34.918 148.77 35.8867 147.857 36.9005L147.959 36.7926C143.665 34.5001 138.508 33.784 133.742 34.595L133.662 34.6112L131.864 34.9777L132.229 36.3845C132.733 38.1135 133.658 39.8655 134.971 41.4855L135.056 41.5814C135.7 42.424 136.574 43.2873 137.614 44.0713C139.866 45.768 142.593 46.86 145.449 47.3509L145.377 47.3365C144.514 49.2431 143.073 51.1428 141.114 52.8094L141.08 52.8358L89.276 92.9775C87.9238 94.0294 87.956 95.7313 89.346 96.7868C89.4951 96.9032 89.6766 97.04 89.8582 97.1768C94.6021 100.752 99.978 103.531 105.698 105.513L105.348 105.378C111.238 107.577 117.641 108.173 123.688 107.239L123.807 107.217C130.833 105.512 137.686 102.393 143.429 97.9429C143.972 97.5217 144.497 97.0944 145.011 96.6589L144.937 96.72C144.985 96.6834 145.04 96.6406 145.095 96.5979C148.435 94.0098 151.371 91.2337 153.909 88.3103L153.641 88.6014C157.443 84.2632 160.011 79.7766 161.559 75.1235L161.47 75.3537C162.78 71.2955 163.199 67.3013 162.806 63.3366L162.799 63.2836C162.052 57.4026 159.949 51.4913 156.522 45.9308L156.291 45.5921L157.016 45.0306C157.166 44.9227 157.339 44.7966 157.507 44.6664C160.726 42.1719 162.348 38.9232 162.385 35.648L162.385 35.6561C162.405 34.1581 162.012 32.6616 161.207 31.2644L161.166 31.1971L160.513 30.2159L159.105 30.3465ZM92.5154 88.0821L99.4632 82.6984C99.794 82.438 99.7854 82.0181 99.4413 81.7588L93.0609 76.9505C92.7168 76.6912 92.1646 76.6884 91.8284 76.9448L84.8805 82.3285C84.5498 82.5889 84.5584 83.0088 84.9025 83.2681L91.2856 88.0784C91.6297 88.3377 92.1819 88.3405 92.5154 88.0821ZM102.084 80.6678L109.026 75.2882C109.36 75.0298 109.354 74.6079 109.007 74.3466L102.627 69.5383C102.283 69.279 101.73 69.2762 101.394 69.5326L94.4463 74.9163C94.1102 75.1767 94.1189 75.6006 94.4657 75.862L100.846 80.6703C101.195 80.9296 101.748 80.9283 102.084 80.6678ZM111.794 73.1437L118.742 67.76C119.073 67.4996 119.064 67.0797 118.72 66.8204L112.339 62.0121C111.995 61.7528 111.443 61.75 111.107 62.0064L104.159 67.3901C103.828 67.6505 103.837 68.0704 104.181 68.3297L110.564 73.14C110.908 73.3993 111.46 73.4021 111.797 73.1417L111.794 73.1437ZM121.394 65.705L128.334 60.3274C128.67 60.067 128.661 59.6471 128.317 59.3837L121.937 54.5755C121.59 54.3141 121.035 54.3134 120.699 54.5738L113.759 59.9514C113.426 60.2098 113.431 60.6317 113.778 60.893L120.161 65.7034C120.505 65.9627 121.058 65.9654 121.391 65.707C121.391 65.707 121.391 65.707 121.394 65.705ZM92.9046 73.7504L99.8472 68.3708C100.181 68.1083 100.172 67.6885 99.8252 67.4271L93.4448 62.6189C93.1007 62.3596 92.5485 62.3568 92.2124 62.6172L85.2698 67.9968C84.9337 68.2573 84.9423 68.6771 85.2865 68.9405L91.6669 73.7488C92.0163 74.0081 92.5658 74.0088 92.9046 73.7504ZM102.615 66.2263L109.563 60.8426C109.893 60.5822 109.882 60.1603 109.538 59.901L103.158 55.0927C102.814 54.8334 102.261 54.8306 101.925 55.0911L94.9852 60.4686C94.6517 60.727 94.6577 61.1489 95.0045 61.4103L101.385 66.2186C101.734 66.4779 102.281 66.4806 102.62 66.2222L102.615 66.2263ZM112.215 58.7876L119.155 53.41C119.488 53.1476 119.479 52.7277 119.135 52.4643L112.755 47.656C112.405 47.3967 111.856 47.396 111.52 47.6564L104.58 53.034C104.246 53.2924 104.252 53.7143 104.599 53.9757L110.98 58.7839C111.326 59.0453 111.876 59.046 112.215 58.7876ZM103.036 51.8702L109.976 46.4927C110.312 46.2322 110.303 45.8083 109.956 45.5469L103.573 40.7366C103.224 40.4773 102.674 40.4766 102.338 40.737L95.398 46.1146C95.0646 46.373 95.0705 46.7949 95.4173 47.0562L101.8 51.8666C102.145 52.1259 102.697 52.1286 103.03 51.8702C103.03 51.8702 103.03 51.8702 103.033 51.8682L103.036 51.8702ZM131.075 58.2032L138.018 52.8236C138.354 52.5632 138.345 52.1433 138.001 51.88L131.621 47.0717C131.274 46.8103 130.719 46.8096 130.383 47.07L123.44 52.4496C123.104 52.7101 123.113 53.13 123.46 53.3913L129.843 58.2016C130.187 58.4609 130.739 58.4637 131.075 58.2032Z" fill="url(#paint4_linear_27_168)" fill-opacity="0.8"/>
<path d="M37.8458 17.1688C35.1416 17.5912 32.5114 18.6313 30.3872 20.2773C30.143 20.4665 29.9095 20.6598 29.6868 20.8572L29.7156 20.8308C28.5473 21.7403 27.5108 22.7091 26.5979 23.7228L26.6998 23.6149C22.4062 21.3225 17.2486 20.6063 12.4824 21.4173L12.4027 21.4335L10.6044 21.8L10.9693 23.2068C11.4742 24.9358 12.3984 26.6878 13.7119 28.3078L13.7966 28.4037C14.4407 29.2464 15.3147 30.1096 16.355 30.8937C18.6065 32.5903 21.3336 33.6823 24.1899 34.1732L24.1176 34.1589C23.255 36.0654 21.8135 37.9651 19.8551 39.6317L19.8209 39.6582L-31.9833 79.7998C-33.3355 80.8517 -33.3033 82.5536 -31.9133 83.6092C-31.7642 83.7255 -31.5826 83.8623 -31.4011 83.9991C-26.6571 87.5742 -21.2813 90.3532 -15.5616 92.3357L-15.9111 92.2008C-10.0216 94.3996 -3.61817 94.9951 2.42854 94.0615L2.54812 94.0392C9.574 92.3345 16.4269 89.215 22.1695 84.7652C22.713 84.3441 23.2377 83.9167 23.7516 83.4813L23.6782 83.5423C23.7255 83.5057 23.7806 83.463 23.8357 83.4202C27.1758 80.8322 30.1118 78.056 32.65 75.1326L32.3812 75.4237C36.1842 71.0855 38.7518 66.5989 40.2996 61.9459L40.2109 62.1761C41.5202 58.1178 41.9399 54.1236 41.5466 50.1589L41.5401 50.1059C40.7928 44.2249 38.6898 38.3136 35.2628 32.7531L35.0318 32.4144L35.7565 31.8529C35.9064 31.7451 36.0799 31.6189 36.2479 31.4887C39.4671 28.9942 41.0891 25.7456 41.126 22.4703L41.1262 22.4785C41.1462 20.9805 40.7527 19.484 39.9479 18.0868L39.9065 18.0195L39.2542 17.0382L37.8458 17.1688ZM-28.7439 74.9044L-21.7961 69.5207C-21.4653 69.2603 -21.4739 68.8404 -21.818 68.5811L-28.1984 63.7728C-28.5425 63.5135 -29.0947 63.5108 -29.4309 63.7671L-36.3787 69.1508C-36.7095 69.4113 -36.7009 69.8311 -36.3568 70.0904L-29.9737 74.9007C-29.6296 75.16 -29.0774 75.1628 -28.7439 74.9044ZM-19.1755 67.4902L-12.2329 62.1105C-11.8995 61.8521 -11.9054 61.4302 -12.2522 61.1689L-18.6327 56.3606C-18.9767 56.1013 -19.529 56.0985 -19.8651 56.3549L-26.813 61.7386C-27.1491 61.999 -27.1404 62.423 -26.7936 62.6843L-20.4132 67.4926C-20.0638 67.7519 -19.5116 67.7506 -19.1755 67.4902ZM-9.46537 59.966L-2.51752 54.5823C-2.18676 54.3219 -2.19536 53.902 -2.53944 53.6427L-8.91985 48.8344C-9.26393 48.5751 -9.81616 48.5724 -10.1523 48.8287L-17.1002 54.2124C-17.4309 54.4729 -17.4223 54.8927 -17.0783 55.152L-10.6951 59.9623C-10.3511 60.2216 -9.79884 60.2244 -9.46274 59.964L-9.46537 59.966ZM0.134525 52.5273L7.07449 47.1497C7.41059 46.8893 7.40199 46.4694 7.05782 46.2061L0.677413 41.3978C0.330622 41.1365 -0.224228 41.1357 -0.56033 41.3962L-7.50029 46.7737C-7.83377 47.0321 -7.82779 47.454 -7.481 47.7154L-1.09788 52.5257C-0.7538 52.785 -0.20158 52.7878 0.131896 52.5294C0.131896 52.5294 0.131899 52.5294 0.134525 52.5273ZM-28.3547 60.5728L-21.4121 55.1932C-21.0787 54.9307 -21.0873 54.5108 -21.4341 54.2495L-27.8145 49.4412C-28.1586 49.1819 -28.7108 49.1791 -29.0469 49.4396L-35.9895 54.8192C-36.3256 55.0796 -36.317 55.4995 -35.9728 55.7628L-29.5924 60.5711C-29.243 60.8304 -28.6935 60.8312 -28.3547 60.5728ZM-18.6445 53.0486L-11.6966 47.6649C-11.3659 47.4045 -11.3772 46.9826 -11.7213 46.7233L-18.1017 41.915C-18.4458 41.6557 -18.998 41.6529 -19.3341 41.9134L-26.2741 47.291C-26.6075 47.5494 -26.6016 47.9713 -26.2548 48.2326L-19.8744 53.0409C-19.5249 53.3002 -18.978 53.303 -18.6392 53.0446L-18.6445 53.0486ZM-9.04459 45.6099L-2.10463 40.2324C-1.77124 39.9699 -1.77984 39.55 -2.12401 39.2866L-8.50442 34.4784C-8.85383 34.2191 -9.40335 34.2183 -9.73945 34.4788L-16.6794 39.8563C-17.0129 40.1147 -17.0069 40.5366 -16.6601 40.798L-10.2797 45.6063C-9.93292 45.8676 -9.3834 45.8683 -9.04459 45.6099ZM-18.2237 38.6926L-11.2838 33.315C-10.9477 33.0545 -10.9563 32.6306 -11.3031 32.3693L-17.6862 27.5589C-18.0357 27.2996 -18.5852 27.2989 -18.9213 27.5593L-25.8612 32.9369C-26.1947 33.1953 -26.1887 33.6172 -25.842 33.8786L-19.4588 38.6889C-19.1148 38.9482 -18.5625 38.951 -18.2291 38.6926C-18.2291 38.6926 -18.2291 38.6926 -18.2264 38.6905L-18.2237 38.6926ZM9.81582 45.0256L16.7584 39.646C17.0945 39.3855 17.0859 38.9657 16.7417 38.7023L10.3613 33.894C10.0145 33.6327 9.45969 33.6319 9.12359 33.8924L2.181 39.272C1.8449 39.5324 1.8535 39.9523 2.20029 40.2136L8.58341 45.0239C8.92749 45.2832 9.47971 45.286 9.81582 45.0256Z" fill="url(#paint5_linear_27_168)" fill-opacity="0.8"/>
<path d="M129.784 56.0946C127.659 54.596 125.049 53.7021 122.245 53.7021C121.923 53.7021 121.604 53.7132 121.288 53.7355L121.33 53.7317C119.784 53.7355 118.273 53.8838 116.803 54.1583L116.963 54.1324C116.148 49.0987 113.41 44.8773 109.607 42.2956L109.542 42.2547L108.055 41.3348L107.077 42.8483C105.913 44.7475 105.001 46.9583 104.457 49.3212L104.429 49.4659C104.121 50.6677 103.944 52.0477 103.944 53.4721C103.944 56.5546 104.776 59.4257 106.211 61.848L106.176 61.7849C103.968 62.894 101.389 63.5951 98.6754 63.7287H98.6303H30.2477C28.4592 63.7324 27.0104 65.2792 27.0035 67.1896C27 67.3973 27 67.6458 27 67.8944C27 74.3896 28.0988 80.6103 30.1091 86.3562L29.9982 85.9927C31.9323 92.0502 35.5855 97.0283 40.3271 100.389L40.4242 100.452C46.4691 103.802 53.6231 105.764 61.2034 105.764C61.9209 105.764 62.6315 105.745 63.342 105.712L63.2415 105.716C63.3039 105.716 63.3767 105.716 63.4495 105.716C67.8583 105.716 72.1667 105.267 76.3433 104.41L75.917 104.484C82.1387 103.238 87.6844 101.001 92.7103 97.9074L92.4538 98.0521C96.8107 95.3256 100.533 92.0391 103.701 88.2147L103.743 88.1627C108.335 82.376 112.072 75.6211 114.644 68.2616L114.786 67.7979H115.742C115.933 67.8053 116.155 67.8128 116.377 67.8128C120.626 67.8128 124.487 66.0285 127.34 63.1203L127.333 63.1277C128.64 61.7998 129.676 60.1862 130.359 58.376L130.39 58.2869L130.813 56.9552L129.784 56.0946ZM36.5838 61.592H45.755C46.1952 61.5883 46.5522 61.2063 46.5522 60.7352V51.9994C46.5522 51.5283 46.1952 51.1426 45.755 51.1388H36.5838C36.1436 51.1426 35.7866 51.5246 35.7866 51.9957V60.7352C35.7866 61.2063 36.1436 61.592 36.5838 61.592ZM49.2142 61.592H58.3786C58.8188 61.592 59.1792 61.21 59.1792 60.7352V51.9994C59.1792 51.5283 58.8222 51.1426 58.382 51.1388H49.2107C48.7671 51.1388 48.4066 51.5246 48.4066 51.9994V60.7352C48.4101 61.21 48.7706 61.592 49.2142 61.592ZM62.0318 61.592H71.2031C71.6433 61.5883 72.0003 61.2063 72.0003 60.7352V51.9994C72.0003 51.5283 71.6433 51.1426 71.2031 51.1388H62.0318C61.5916 51.1426 61.2346 51.5246 61.2346 51.9957V60.7352C61.2346 61.2063 61.5916 61.592 62.0353 61.592H62.0318ZM74.7039 61.592H83.8648C84.3084 61.592 84.6654 61.21 84.6689 60.7352V51.9994C84.6689 51.5246 84.3084 51.1388 83.8648 51.1388H74.7039C74.2637 51.1388 73.9032 51.5209 73.9032 51.9957V60.7352C73.9032 61.2063 74.2602 61.592 74.7004 61.592C74.7004 61.592 74.7004 61.592 74.7039 61.592ZM49.2142 49.0245H58.3786C58.8222 49.0208 59.1792 48.6387 59.1792 48.1639V39.4282C59.1792 38.9571 58.8222 38.5713 58.3786 38.5713H49.2142C48.7706 38.5713 48.4135 38.9533 48.4101 39.4282V48.1639C48.4135 48.6387 48.7706 49.0208 49.2142 49.0245ZM62.0318 49.0245H71.2031C71.6433 49.0208 72.0003 48.635 72.0003 48.1639V39.4282C72.0003 38.9571 71.6433 38.5713 71.1997 38.5713H62.0388C61.5986 38.5713 61.2381 38.9533 61.2381 39.4282V48.1639C61.2416 48.6387 61.5951 49.0208 62.0388 49.0245H62.0318ZM74.7039 49.0245H83.8648C84.3084 49.0208 84.6654 48.6387 84.6689 48.1639V39.4282C84.6654 38.9533 84.3084 38.5713 83.8648 38.5713H74.7039C74.2637 38.5713 73.9032 38.9533 73.9032 39.4282V48.1639C73.9032 48.6387 74.2602 49.0208 74.7039 49.0245ZM74.7039 36.4569H83.8648C84.3084 36.4569 84.6689 36.0711 84.6689 35.5963V26.8569C84.6654 26.3821 84.3084 26 83.8648 26H74.7039C74.2637 26 73.9032 26.3821 73.9032 26.8569V35.5963C73.9032 36.0674 74.2602 36.4532 74.7004 36.4532C74.7004 36.4532 74.7004 36.4532 74.7039 36.4532V36.4569ZM87.4834 61.592H96.6477C97.0914 61.592 97.4484 61.21 97.4519 60.7352V51.9994C97.4519 51.5246 97.0914 51.1388 96.6477 51.1388H87.4834C87.0397 51.1388 86.6827 51.5209 86.6827 51.9957V60.7352C86.6827 61.2063 87.0397 61.592 87.4834 61.592Z" fill="#353434"/>
<defs>
<linearGradient id="paint0_linear_27_168" x1="228.751" y1="59.1157" x2="284.089" y2="130.53" gradientUnits="userSpaceOnUse">
<stop offset="0.567308" stop-color="#272727" stop-opacity="0.8"/>
<stop offset="1" stop-color="#272727" stop-opacity="0"/>
</linearGradient>
<linearGradient id="paint1_linear_27_168" x1="113.047" y1="145.727" x2="168.384" y2="217.141" gradientUnits="userSpaceOnUse">
<stop offset="0.567308" stop-color="#272727" stop-opacity="0.8"/>
<stop offset="1" stop-color="#272727" stop-opacity="0"/>
</linearGradient>
<linearGradient id="paint2_linear_27_168" x1="-5.35174" y1="232.338" x2="49.9855" y2="303.752" gradientUnits="userSpaceOnUse">
<stop offset="0.567308" stop-color="#272727" stop-opacity="0.8"/>
<stop offset="1" stop-color="#272727" stop-opacity="0"/>
</linearGradient>
<linearGradient id="paint3_linear_27_168" x1="-17.623" y1="125.834" x2="24.0682" y2="179.638" gradientUnits="userSpaceOnUse">
<stop offset="0.567308" stop-color="#272727" stop-opacity="0.8"/>
<stop offset="1" stop-color="#272727" stop-opacity="0"/>
</linearGradient>
<linearGradient id="paint4_linear_27_168" x1="98.5818" y1="43.6476" x2="141.695" y2="99.2865" gradientUnits="userSpaceOnUse">
<stop offset="0.567308" stop-color="#272727" stop-opacity="0.8"/>
<stop offset="1" stop-color="#272727" stop-opacity="0"/>
</linearGradient>
<linearGradient id="paint5_linear_27_168" x1="-22.6775" y1="30.4699" x2="20.4355" y2="86.1088" gradientUnits="userSpaceOnUse">
<stop offset="0.567308" stop-color="#272727" stop-opacity="0.8"/>
<stop offset="1" stop-color="#272727" stop-opacity="0"/>
</linearGradient>
</defs>
</svg>
